<svg id="Layer_2" enable-background="new 0 0 64 64" height="512" viewBox="0 0 64 64" width="512" xmlns="http://www.w3.org/2000/svg"><g><g><path d="m13 36c2.76 0 5 2.24 5 5 0 1.13-.37 2.17-1 3-.91 1.21-2.37 2-4 2-.87 0-1.69-.22-2.4-.61-1.55-.86-2.6-2.5-2.6-4.39 0-1.63.79-3.09 2-4 .83-.63 1.87-1 3-1z" fill="#fcd770"/><path d="m23.93 29.79c-.37 2.39-2.44 4.21-4.93 4.21-2.76 0-5-2.24-5-5s2.24-5 5-5 5 2.24 5 5c0 .27-.02.53-.07.79z" fill="#fcd770"/><path d="m18 41c0-2.76-2.24-5-5-5-1.13 0-2.17.37-3 1 0-.52.04-1.03.12-1.53.37-2.44 1.65-4.68 3.6-6.25.09-.08.18-.15.28-.22 0 2.76 2.24 5 5 5 2.49 0 4.56-1.82 4.93-4.21h.01c1.29 1.17 2.3 2.6 3 4.17.01.01.01.03.01.04h.01c.68 1.55 1.04 3.25 1.04 5-2.02 2.52-4.87 4.21-8 4.78-.78.15-1.59.22-2.4.22h-.6c.63-.83 1-1.87 1-3z" fill="#cf9e76"/><path d="m47 44-4.26 5.48c-.61.78-1.13 1.63-1.54 2.53l.68-3.4c.08-.4.12-.82.12-1.23 0-2.11-1.05-4.08-2.81-5.25l-.19-.13.63-3.14c.25-1.24.37-2.49.37-3.75 0-.37-.01-.74-.04-1.1 2.69.05 5.35.41 7.93 1.04.07.68.11 1.37.11 2.06 0 1.26-.12 2.51-.37 3.75z" fill="#ecc19c"/><path d="m28 39c0-1.75-.36-3.45-1.04-5h5.02c-.04.96-.16 1.91-.35 2.86l-.63 3.14-4.26 5.48c-1.78 2.28-2.74 5.09-2.74 7.98v.86c-2.54-2.27-4-5.52-4-8.94v-1.59-.01c3.13-.57 5.98-2.26 8-4.78z" fill="#ecc19c"/><path d="m39 42-4.26 5.48c-.61.78-1.13 1.62-1.54 2.51l.68-3.38c.08-.4.12-.82.12-1.23 0-2.11-1.05-4.08-2.81-5.25l-.19-.13.63-3.14c.19-.95.31-1.9.35-2.86h7.21c.26 0 .52 0 .77.01.03.36.04.73.04 1.1 0 1.26-.12 2.51-.37 3.75z" fill="#b27946"/><path d="m54 37.14v14.19c-1.49 1.06-3.1 1.96-4.8 2.67l.68-3.39c.08-.4.12-.82.12-1.23 0-2.11-1.05-4.08-2.81-5.25l-.19-.13.63-3.14c.25-1.24.37-2.49.37-3.75 0-.69-.04-1.38-.11-2.06 2.09.51 4.14 1.21 6.11 2.09z" fill="#b27946"/><path d="m62 42c-1.07 2.14-2.42 4.09-4 5.81v-8.59c1.39.83 2.72 1.76 4 2.78z" fill="#cf9e76"/><path d="m58 39.22v8.59c-1.21 1.31-2.55 2.49-4 3.52v-14.19c1.37.61 2.71 1.3 4 2.08z" fill="#ecc19c"/><g fill="#cf9e76"><path d="m50 49.38c0 .41-.04.83-.12 1.23l-.68 3.39c-2.85 1.21-5.94 1.9-9.12 1.98.16-1.38.54-2.72 1.12-3.97.41-.9.93-1.75 1.54-2.53l4.26-5.48.19.13c1.76 1.17 2.81 3.14 2.81 5.25z"/><path d="m42 47.38c0 .41-.04.83-.12 1.23l-.68 3.4c-.58 1.25-.96 2.59-1.12 3.97-.24.02-.49.02-.73.02h-7.35v-.54c0-1.89.41-3.75 1.2-5.45 0-.01 0-.01 0-.02.41-.89.93-1.73 1.54-2.51l4.26-5.48.19.13c1.76 1.17 2.81 3.14 2.81 5.25z"/><path d="m34 45.38c0 .41-.04.83-.12 1.23l-.68 3.38v.02c-.79 1.7-1.2 3.56-1.2 5.45v.54h-1.7c-.86 0-1.72.14-2.53.41l-1.77.59v-.06c0-.6-.26-1.16-.72-1.54l-.96-.8c-.11-.09-.22-.18-.32-.28v-.86c0-2.89.96-5.7 2.74-7.98l4.26-5.48.19.13c1.76 1.17 2.81 3.14 2.81 5.25z"/></g><path d="m49.2 54c1.7-.71 3.31-1.61 4.8-2.67 1.45-1.03 2.79-2.21 4-3.52 1.58-1.72 2.93-3.67 4-5.81 0 5.52-2.24 10.52-5.86 14.14s-8.62 5.86-14.14 5.86h-8c-3.01 0-5.94-.9-8.42-2.59.26-.3.42-.69.42-1.11v-1.3l1.77-.59c.81-.27 1.67-.41 2.53-.41h1.7 7.35c.24 0 .49 0 .73-.02 3.18-.08 6.27-.77 9.12-1.98z" fill="#b27946"/><path d="m20 43.79v1.59c0 3.42 1.46 6.67 4 8.94.1.1.21.19.32.28l.96.8c.46.38.72.94.72 1.54v.06 1.3c0 .42-.16.81-.42 1.11-.3.36-.76.59-1.28.59-.2 0-.39-.03-.58-.1-6.63-2.37-11.48-7.89-13.12-14.51.71.39 1.53.61 2.4.61 1.63 0 3.09-.79 4-2h.6c.81 0 1.62-.07 2.4-.22z" fill="#b27946"/></g><g><path d="m14.293 43.707 1.414-1.414-1.293-1.293 1.293-1.293-1.414-1.414-1.293 1.293-1.293-1.293-1.414 1.414 1.293 1.293-1.293 1.293 1.414 1.414 1.293-1.293z"/><path d="m17.707 31.707 1.293-1.293 1.293 1.293 1.414-1.414-1.293-1.293 1.293-1.293-1.414-1.414-1.293 1.293-1.293-1.293-1.414 1.414 1.293 1.293-1.293 1.293z"/><path d="m62.625 41.219c-4.087-3.27-8.821-5.629-13.839-6.96-.17-1.192-.436-2.37-.82-3.521l-.935-2.804c-.02-.064-.031-.13-.031-.197v-.119c0-.437.506-.75.895-.553l3.658 1.829.895-1.789-3.658-1.829c-.362-.18-.768-.276-1.172-.276-1.443 0-2.618 1.174-2.618 2.618v.119c0 .28.045.559.134.828l.936 2.806c.262.786.456 1.587.608 2.396-1.906-.39-3.843-.637-5.796-.726-.15-1.46-.448-2.902-.914-4.302l-.935-2.804c-.022-.065-.033-.131-.033-.198v-.119c0-.437.506-.75.895-.553l3.658 1.829.895-1.789-3.658-1.829c-.362-.18-.768-.276-1.172-.276-1.443 0-2.618 1.174-2.618 2.618v.119c0 .28.045.559.134.828l.936 2.806c.394 1.183.65 2.399.794 3.629h-5.867c-.011-2.131-.355-4.238-1.029-6.262l-.935-2.804c-.022-.064-.033-.13-.033-.197v-.119c0-.437.506-.75.895-.553l3.658 1.829.895-1.789-3.658-1.829c-.362-.18-.768-.276-1.172-.276-1.443 0-2.618 1.174-2.618 2.618v.119c0 .28.045.559.134.828l.936 2.806c.606 1.82.915 3.713.926 5.629h-3.427c-.656-1.32-1.527-2.531-2.59-3.581.009-.139.021-.278.021-.419 0-3.309-2.691-6-6-6-2.815 0-5.177 1.951-5.821 4.57-2.788-2.233-4.755-5.284-5.644-8.691l2.465-2.464c.645-.645 1-1.502 1-2.415 0-1.654-1.346-3-3-3s-3 1.346-3 3v.705c0 .857.065 1.704.18 2.539-.362-.156-.761-.244-1.18-.244-1.654 0-3 1.346-3 3v.705c0 6.156 3.006 11.81 8.061 15.261-.017.182-.024.365-.033.548-1.24 1.1-2.028 2.701-2.028 4.486 0 2.109 1.096 3.963 2.745 5.033 1.841 6.885 6.907 12.405 13.642 14.81.294.104.599.157.908.157.491 0 .946-.142 1.343-.371 2.519 1.547 5.391 2.371 8.362 2.371h8c11.579 0 21-9.42 21-21v-.48zm-7.625-2.496c.678.336 1.344.696 2 1.075v7.62c-.633.671-1.299 1.305-2 1.896zm-6.392 2.332c.26-1.294.392-2.623.392-3.95 0-.241-.02-.48-.029-.719 1.37.393 2.715.869 4.029 1.423v13.01c-.784.532-1.594 1.024-2.436 1.46l.294-1.472c.094-.471.142-.953.142-1.432 0-2.297-1.08-4.429-2.894-5.807zm-1.418 4.33c1.143 1 1.81 2.446 1.81 3.99 0 .348-.034.699-.103 1.041l-.575 2.873c-2.218.876-4.579 1.435-7.028 1.628.38-1.749 1.127-3.401 2.232-4.824zm-6.582-6.33c.26-1.294.392-2.623.392-3.95 0-.018-.002-.036-.002-.054 2.009.103 4 .38 5.953.819.028.411.05.822.05 1.235 0 1.194-.118 2.391-.353 3.557l-.582 2.91-3.073 3.951c.001-.049.007-.098.007-.148 0-2.297-1.08-4.429-2.894-5.807zm-1.418 4.33c1.143 1 1.81 2.446 1.81 3.99 0 .348-.034.699-.103 1.041l-.664 3.319c-.467 1.041-.812 2.135-1.014 3.265h-6.2c.098-2.495.973-4.932 2.508-6.907zm-6.582-6.33c.136-.677.232-1.364.298-2.055h6.09c0 .035.004.07.004.105 0 1.194-.118 2.391-.353 3.557l-.582 2.91-3.073 3.951c.002-.049.008-.098.008-.148 0-2.297-1.08-4.429-2.894-5.807zm-3.827 2.57.219-.274v-.351c0-1.368-.216-2.715-.616-4h2.512c-.059.558-.138 1.114-.248 1.662l-.582 2.91-4.116 5.293c-1.568 2.016-2.544 4.446-2.842 6.972-1.353-1.859-2.108-4.105-2.108-6.458v-.795c3.041-.738 5.775-2.451 7.781-4.959zm-9.781-14.625c2.206 0 4 1.794 4 4s-1.794 4-4 4-4-1.794-4-4 1.794-4 4-4zm-5.661 5.971c.819 2.342 3.044 4.029 5.661 4.029 2.34 0 4.366-1.35 5.355-3.309 1.615 1.955 2.561 4.402 2.639 6.957-2.114 2.496-5.089 4.015-8.323 4.294.21-.61.329-1.262.329-1.942 0-3.309-2.691-6-6-6-.634 0-1.245.1-1.819.284.316-1.605 1.063-3.098 2.158-4.313zm-6.339-16.971c0-.551.448-1 1-1s1 .449 1 1c0 .378-.146.733-.414 1l-1.49 1.49c-.064-.59-.096-1.185-.096-1.785zm-4 6.705v-.705c0-.551.448-1 1-1s1 .449 1 1c0 .378-.146.733-.414 1l-1.491 1.491c-.063-.589-.095-1.185-.095-1.786zm.531 4.178 2.469-2.468c.17-.17.317-.357.446-.554 1.218 2.904 3.165 5.48 5.709 7.453-1.238 1.268-2.147 2.817-2.661 4.502-2.963-2.252-5.044-5.392-5.963-8.933zm5.469 16.117c0-2.206 1.794-4 4-4s4 1.794 4 4-1.794 4-4 4-4-1.794-4-4zm16 17.295c0 .47-.501.82-.942.664-5.644-2.016-9.996-6.445-11.946-12.032.29.043.585.073.888.073 1.771 0 3.36-.776 4.46-2h.137c.472 0 .939-.033 1.403-.078v.458c0 3.87 1.705 7.51 4.678 9.987l.963.803c.229.19.359.47.359.768zm.92-3.663-.92-.767v-.405c0-2.655.897-5.271 2.527-7.368l3.662-4.707c1.143 1 1.81 2.446 1.81 3.99 0 .348-.034.699-.103 1.041l-.664 3.316c-.739 1.655-1.152 3.448-1.213 5.268h-.721c-.969 0-1.927.155-2.846.462l-.722.24c-.184-.407-.456-.775-.81-1.07zm16.08 6.368h-8c-2.521 0-4.964-.676-7.12-1.952.07-.241.12-.49.12-.753v-.574l1.085-.362c.715-.238 1.459-.359 2.213-.359h9.05c8.487 0 16.238-3.999 21.146-10.658-1.97 8.39-9.511 14.658-18.494 14.658zm17-16.001v-3.952c.583.391 1.155.799 1.714 1.225-.517.954-1.089 1.864-1.714 2.727z"/><path d="m19.879 21.536c.899-.899 1.962-1.577 3.121-2.004v.468c0 1.654 1.346 3 3 3s3-1.346 3-3-1.346-3-3-3c-.313 0-.625.014-.935.04.257-1.86 1.246-3.49 2.668-4.586 1.622 1.575 3.833 2.546 6.267 2.546h.128c1.584 0 2.872-1.305 2.872-2.91 0-1.704-1.387-3.09-3.091-3.09h-1.909c-1.372 0-2.673.309-3.837.86-.65-.98-1.061-2.132-1.146-3.373.95.335 1.958.513 2.983.513 1.654 0 3-1.346 3-3s-1.346-3-3-3c-1.847 0-3.462 1.006-4.328 2.499-.476-.373-.904-.808-1.272-1.298l-.6-.8-1.6 1.199.6.8c.621.828 1.377 1.534 2.226 2.095-.017.166-.026.335-.026.505 0 1.811.537 3.498 1.461 4.911-1.963 1.537-3.273 3.871-3.442 6.509-1.704.494-3.265 1.412-4.553 2.7l-.172.171 1.412 1.416zm12.121-10.536h1.909c.602 0 1.091.489 1.091 1.09 0 .51-.383.91-.872.91h-.128c-1.672 0-3.209-.589-4.414-1.571.753-.278 1.566-.429 2.414-.429zm-2-8c.552 0 1 .449 1 1s-.448 1-1 1c-.897 0-1.778-.175-2.596-.503.52-.894 1.489-1.497 2.596-1.497zm-5 16.057c.329-.038.663-.057 1-.057.552 0 1 .449 1 1s-.448 1-1 1-1-.449-1-1z"/></g></g></svg>