<?xml version="1.0" standalone="no"?>
<!DOCTYPE svg PUBLIC "-//W3C//DTD SVG 20010904//EN"
 "http://www.w3.org/TR/2001/REC-SVG-20010904/DTD/svg10.dtd">
<svg version="1.0" xmlns="http://www.w3.org/2000/svg"
 width="914.000000pt" height="930.000000pt" viewBox="0 0 914.000000 930.000000"
 preserveAspectRatio="xMidYMid meet">

<g transform="translate(0.000000,930.000000) scale(0.100000,-0.100000)"
fill="#000000" stroke="none">
<path d="M2706 9256 c-111 -47 -171 -117 -202 -236 -19 -76 -13 -147 23 -240
13 -36 32 -101 42 -145 17 -76 18 -78 25 -44 3 20 2 49 -4 63 -18 48 -12 95
15 121 56 56 111 14 107 -81 -3 -59 3 -68 18 -29 11 29 22 31 41 9 14 -17 15
-20 17 -66 3 -46 34 -68 95 -68 44 0 58 5 87 30 41 34 70 39 70 10 0 -22 28
-40 61 -40 25 0 109 79 109 104 0 12 -11 16 -42 18 -73 2 -92 -3 -113 -28
l-20 -26 -31 30 c-28 26 -40 30 -121 36 -51 4 -99 13 -110 21 -17 13 -17 15 7
61 32 62 75 104 107 104 15 0 79 -36 159 -89 l135 -89 46 91 c38 77 46 101 45
148 0 57 -21 120 -49 151 -28 31 -1 20 34 -14 49 -47 40 -17 -10 35 -93 95
-272 176 -407 184 -63 3 -84 0 -134 -21z m277 -616 c11 -10 -9 -50 -37 -72
-30 -25 -100 -24 -126 2 -23 23 -26 60 -7 79 13 14 155 7 170 -9z m165 -15
l27 -25 -21 -21 c-22 -22 -78 -29 -95 -12 -12 12 12 68 33 76 23 9 28 7 56
-18z m40 7 c2 -7 -2 -10 -12 -6 -9 3 -16 11 -16 16 0 13 23 5 28 -10z"/>
<path d="M4515 8427 c-203 -53 -308 -218 -291 -457 4 -47 9 -119 12 -160 2
-41 7 -89 10 -106 4 -30 1 -33 -88 -85 -57 -33 -125 -84 -176 -133 -68 -66
-89 -94 -122 -162 -22 -46 -42 -94 -45 -107 -5 -19 -15 -26 -43 -31 -46 -7
-143 -54 -197 -93 -22 -16 -58 -56 -80 -88 l-40 -58 2 -215 c1 -118 5 -218 10
-223 4 -4 25 8 46 27 32 30 37 41 37 80 0 31 6 50 20 64 42 42 91 13 111 -66
l12 -47 27 77 c53 149 99 176 222 126 42 -16 95 -30 118 -30 37 0 48 7 111 66
39 36 72 64 74 62 3 -2 11 -37 20 -77 19 -92 22 -97 49 -74 55 49 53 49 72
-17 16 -57 20 -63 65 -86 l49 -24 0 126 0 127 44 41 c32 30 48 55 58 89 7 26
15 46 19 45 4 -2 25 -26 48 -55 22 -29 68 -71 102 -95 51 -37 58 -44 44 -53
-54 -32 -56 -36 -39 -90 12 -37 14 -76 11 -152 l-5 -102 42 -5 c22 -3 106 -8
186 -10 158 -5 184 -8 278 -36 l63 -18 301 174 c166 95 306 178 312 184 13 13
-20 341 -44 437 -11 39 -28 91 -39 114 -13 26 -17 47 -12 52 11 11 31 0 31
-17 0 -23 37 -48 59 -41 26 8 110 103 117 131 4 15 -5 36 -25 64 -38 52 -43
84 -8 53 24 -22 72 -37 87 -28 6 4 -3 17 -19 31 -40 33 -60 89 -77 218 -8 61
-21 134 -29 162 l-15 52 -163 96 c-95 55 -175 96 -190 96 -40 0 -127 -36 -179
-75 -63 -46 -95 -112 -114 -228 -8 -51 -26 -130 -41 -177 -22 -71 -34 -93 -75
-134 -51 -51 -56 -62 -35 -69 17 -6 46 10 85 46 42 40 41 25 -3 -42 -19 -29
-35 -55 -35 -57 0 -3 29 -19 65 -35 36 -17 67 -34 69 -38 3 -4 -26 -31 -64
-60 -134 -102 -230 -228 -230 -303 0 -45 -5 -51 -82 -91 l-68 -35 0 45 c0 24
6 103 14 176 14 132 20 184 56 582 11 116 20 257 20 315 0 207 -72 341 -219
411 -57 27 -209 35 -286 16z m182 -443 l-6 -34 57 0 c53 0 143 17 185 35 15 6
17 1 17 -36 0 -24 -7 -89 -15 -144 -18 -122 -69 -235 -118 -266 -40 -24 -102
-24 -149 -1 l-36 19 -56 -52 c-31 -28 -56 -57 -56 -64 0 -6 10 -25 22 -41 19
-26 20 -34 10 -69 -7 -21 -21 -50 -31 -62 l-19 -24 -6 55 c-3 30 -8 165 -11
300 -7 256 -2 292 40 356 14 21 16 22 61 8 58 -17 74 -18 74 -1 0 6 5 30 11
51 9 34 12 37 21 22 6 -10 8 -33 5 -52z m868 -153 c39 -31 96 -74 128 -95 56
-39 74 -62 40 -52 -10 3 -49 10 -86 17 -59 10 -70 9 -86 -5 -23 -21 -33 -20
-53 3 -9 11 -36 21 -64 25 -84 12 -84 12 -84 65 0 51 21 81 70 99 36 13 57 4
135 -57z m-85 -136 c16 -10 12 -52 -7 -70 -11 -12 -25 -15 -47 -11 -38 8 -56
30 -56 71 l0 32 50 -8 c27 -4 54 -11 60 -14z m219 -25 c38 -10 48 -33 28 -64
-19 -28 -55 -34 -102 -16 -26 10 -61 72 -50 90 6 9 74 4 124 -10z m-129 -50
c57 -72 145 -79 178 -14 l19 36 16 -93 16 -94 -41 -37 c-37 -33 -42 -42 -46
-92 -4 -45 -10 -61 -30 -76 -32 -26 -82 -25 -117 1 -50 40 -136 183 -156 262
-10 39 -19 75 -19 80 0 4 20 7 44 7 38 0 48 4 66 30 12 17 25 30 30 30 5 0 23
-18 40 -40z m-1301 -181 c10 -90 16 -166 13 -169 -9 -11 -100 102 -110 139
-25 80 -3 168 50 206 28 19 24 34 47 -176z m-154 -92 c33 -33 48 -58 64 -112
22 -73 72 -345 64 -345 -4 0 -36 23 -93 68 -3 2 4 10 15 18 20 15 20 15 1 30
-11 8 -27 14 -35 14 -23 0 0 18 29 22 l25 4 -30 13 c-16 7 -49 16 -72 18 -46
6 -52 13 -28 33 27 22 16 30 -45 30 -61 0 -70 6 -47 29 10 10 5 12 -25 8 -34
-4 -37 -3 -42 29 -12 62 15 139 58 165 18 11 50 19 75 19 38 0 49 -5 86 -43z"/>
<path d="M2925 6550 c-29 -32 -136 -79 -237 -104 l-91 -23 2 -94 c2 -71 8
-111 27 -163 13 -38 23 -70 22 -70 -2 -1 -15 -10 -30 -19 -15 -9 -30 -17 -33
-17 -3 0 -5 26 -5 58 0 103 10 97 -158 97 -155 0 -206 9 -296 52 -27 12 -50
22 -51 20 -1 -1 2 -54 6 -117 56 -821 68 -1002 74 -1115 3 -60 13 -202 20
-315 8 -113 15 -266 15 -341 0 -103 3 -139 14 -148 16 -13 18 -5 37 144 7 55
13 101 15 103 4 6 64 -28 64 -36 0 -4 -9 -63 -20 -132 -23 -147 -36 -126 125
-205 144 -71 260 -107 344 -109 86 -1 117 8 125 36 3 13 6 109 6 215 l0 192
92 -55 c51 -30 96 -54 100 -54 4 0 8 -76 8 -168 l0 -168 39 -22 39 -22 78 44
c44 24 103 58 133 75 l53 32 33 -25 c75 -58 119 -207 171 -591 31 -225 74
-459 89 -482 9 -12 11 -23 6 -23 -5 0 -8 -8 -6 -17 2 -10 4 -33 4 -51 1 -22 5
-31 13 -26 7 4 8 3 4 -4 -4 -6 -4 -22 0 -35 4 -20 30 -36 127 -82 67 -32 128
-60 135 -62 9 -4 12 20 12 101 0 78 -3 106 -12 106 -7 0 -5 5 5 11 16 9 17 41
17 429 0 231 3 420 6 420 4 0 79 -42 168 -94 88 -52 170 -96 181 -98 15 -2 34
-39 83 -168 35 -91 69 -172 77 -180 7 -8 19 -34 26 -57 11 -39 17 -45 66 -63
30 -11 57 -20 61 -20 4 0 90 -27 192 -61 251 -82 326 -83 443 -2 40 28 49 63
25 96 -16 22 -205 126 -213 118 -7 -6 -12 -7 -40 -10 -9 0 -38 -21 -64 -46
-45 -42 -71 -56 -71 -37 0 17 70 90 102 106 l33 17 -30 -6 c-16 -3 -50 -26
-75 -51 -44 -42 -70 -55 -70 -34 0 15 41 60 84 91 21 16 34 29 27 29 -22 0
-55 -21 -98 -63 -28 -27 -46 -38 -53 -31 -13 13 54 86 98 109 l34 16 -42 27
c-42 27 -44 30 -120 240 l-77 213 26 18 c25 17 497 300 685 411 51 30 118 70
147 88 30 18 113 68 184 111 72 42 175 105 230 138 114 69 938 559 1090 648
55 32 105 64 111 70 7 6 80 51 163 101 149 88 168 106 159 148 -2 12 -132 -61
-508 -285 -278 -166 -997 -596 -1598 -954 l-1092 -653 -868 503 c-477 276
-881 516 -898 533 -77 75 -85 281 -20 547 135 551 218 803 312 945 23 34 24
39 9 66 -22 42 -18 84 10 126 20 29 25 49 25 95 0 74 -10 91 -35 63z m-341
-2291 c-37 -38 -54 -48 -54 -31 0 15 72 82 82 76 5 -4 -7 -24 -28 -45z m86 4
c0 -10 -62 -73 -72 -73 -16 0 -7 25 19 52 25 26 53 37 53 21z m60 -26 c0 -9
-92 -78 -97 -73 -10 10 59 76 79 76 10 0 18 -1 18 -3z m2190 -921 c0 -2 -8
-10 -17 -17 -16 -13 -17 -12 -4 4 13 16 21 21 21 13z"/>
<path d="M4066 6426 c-34 -145 -73 -214 -133 -236 -52 -19 -50 -17 -56 -65
-12 -80 -27 -145 -42 -181 -21 -51 -19 -54 11 -16 30 38 272 220 333 252 43
21 106 26 159 11 17 -5 32 -7 32 -3 -1 16 -50 193 -58 208 -5 9 -40 26 -78 39
-53 18 -78 33 -105 64 l-36 41 -27 -114z"/>
<path d="M3333 6483 c-22 -4 -22 -5 8 -30 l31 -26 31 31 32 32 -40 -1 c-22 -1
-50 -4 -62 -6z"/>
<path d="M5168 6352 c-46 -3 -48 -5 -67 -47 -30 -68 -121 -115 -121 -62 0 22
-3 23 -82 24 -46 1 -96 6 -112 12 -16 7 -30 10 -32 9 -4 -5 -65 -441 -61 -444
1 -2 53 26 115 62 l112 66 0 67 c0 107 11 119 248 259 87 52 87 60 0 54z"/>
<path d="M4607 6233 c-9 -9 -9 -25 1 -41 13 -20 62 2 62 28 0 15 -7 20 -28 20
-16 0 -32 -3 -35 -7z"/>
<path d="M3636 6144 c-10 -26 -29 -50 -42 -56 -12 -6 -20 -16 -17 -24 2 -7 11
-46 18 -86 l13 -73 37 79 c33 71 37 86 32 134 -3 30 -10 59 -14 63 -4 4 -17
-12 -27 -37z"/>
<path d="M4397 6182 c-12 -2 -16 -9 -13 -19 3 -8 6 -19 6 -24 0 -5 11 -9 24
-9 19 0 22 4 18 25 -5 29 -10 33 -35 27z"/>
<path d="M4328 5989 c-27 -128 -55 -154 -119 -107 -28 21 -32 22 -57 7 -15 -8
-38 -22 -52 -30 -14 -8 -27 -16 -30 -19 -3 -3 -18 -6 -34 -5 -16 0 -31 -6 -33
-12 -3 -7 2 -13 11 -13 9 0 16 -5 16 -10 0 -13 -139 -293 -148 -300 -4 -3 -34
-50 -67 -105 -33 -54 -64 -106 -69 -114 -5 -8 -5 -12 0 -9 5 3 104 63 219 133
116 70 235 142 266 159 162 90 229 132 229 144 0 7 -14 78 -31 157 -26 116
-35 145 -48 143 -10 -2 -19 9 -26 29 -10 31 -11 29 -27 -48z"/>
<path d="M4678 5142 c-198 -114 -237 -141 -238 -159 0 -13 3 -23 6 -23 4 0
112 61 240 136 203 118 234 139 234 160 0 13 -1 24 -2 23 -2 0 -110 -62 -240
-137z"/>
<path d="M4564 4736 c-60 -26 -64 -41 -64 -244 0 -179 0 -183 24 -207 66 -66
248 -51 281 23 6 14 19 22 35 22 49 1 60 20 60 103 0 71 -2 77 -30 100 -16 14
-34 27 -41 29 -6 2 -13 31 -16 63 -5 80 -6 81 -52 105 -47 24 -149 27 -197 6z
m276 -299 c0 -41 -3 -48 -12 -39 -13 13 -20 80 -11 95 11 19 23 -9 23 -56z"/>
<path d="M6200 4574 c0 -34 31 -127 53 -158 26 -36 152 -119 220 -145 75 -28
139 -35 181 -21 78 25 86 67 25 125 -33 32 -40 35 -35 18 12 -37 -24 -63 -88
-63 -43 0 -70 8 -133 40 -100 50 -164 106 -197 172 -16 31 -26 44 -26 32z"/>
<path d="M5942 4463 c-19 -34 -14 -94 11 -138 52 -92 259 -226 371 -240 84
-11 166 22 166 67 0 10 -18 38 -40 61 -39 42 -40 42 -40 15 0 -38 -37 -60
-100 -60 -63 1 -168 54 -247 126 -57 52 -78 84 -97 150 -12 39 -13 40 -24 19z"/>
<path d="M4248 2953 c7 -3 16 -2 19 1 4 3 -2 6 -13 5 -11 0 -14 -3 -6 -6z"/>
<path d="M4251 2911 c-28 -18 -4 -25 29 -9 32 16 33 18 10 18 -14 0 -31 -4
-39 -9z"/>
<path d="M4303 2874 c-61 -21 -63 -26 -63 -149 l0 -112 54 -13 c74 -18 175 -8
233 21 57 30 68 46 59 91 -5 28 -17 42 -64 74 -61 42 -85 60 -110 84 -19 18
-64 19 -109 4z"/>
</g>
</svg>
